# xmcd
#
# Track frame offsets:
#	150
#	11801
#	22822
#	31945
#	42019
#	51783
#	63444
#	73697
#	82515
#	93230
#	103496
#	114202
#	123495
#	137289
#	149100
#	157411
#	172311
#	179574
#	189447
#	201389
#
# Disc length: 2795 seconds
#
# Revision: 15
# Processed by: cddbd v1.5.2PL0 Copyright (c) Steve Scherf et al.
# Submitted via: audiograbber 1.83.01
#
DISCID=1d0ae914
DTITLE=Various Artist - Millenium. 40 Hits 1955-1959 [CD 2)
DYEAR=1998
DGENRE=Oldies
TTITLE0=Lloyd Price - Personality
TTITLE1=Fats Domino - Ain't That A Shame
TTITLE2=The Everly Brothers - Wake Up, Little Susie
TTITLE3=Craig Douglas - Only Sixteen
TTITLE4=The Chordettes - Lollipop
TTITLE5=Bobby Day - Rockin' Robin
TTITLE6=The Crickets - That'll Be The Day
TTITLE7=Eddie Cochran - Summertime Blues
TTITLE8=Frankie Avalon - Venus
TTITLE9=Little Anthony and The Imperials - Tears On My Pillow
TTITLE10=Ritchie Valens - Donna
TTITLE11=Buddy Holly - It Doesn't Matter Anymore
TTITLE12=The Kingston Trio - Tom Dooley
TTITLE13=Andy Williams - Canadian Sunset
TTITLE14=Russ Conway - Side Saddle
TTITLE15=Peggy Lee - Fever
TTITLE16=Adam Faith - What Do You Want?
TTITLE17=The Champs - Tequila
TTITLE18=Chuck Berry - Johnny B Goode
TTITLE19=Jerry Lee Lewis - Great Balls Of Fire
EXTD=YEAR: 1998
EXTT0=
EXTT1=
EXTT2=
EXTT3=
EXTT4=
EXTT5=
EXTT6=
EXTT7=
EXTT8=
EXTT9=
EXTT10=
EXTT11=
EXTT12=
EXTT13=
EXTT14=
EXTT15=
EXTT16=
EXTT17=
EXTT18=
EXTT19=
PLAYORDER=
